<svg xmlns="http://www.w3.org/2000/svg" viewBox="0 0 328.86 125.94"><defs><style>.cls-1{fill:#fff;}</style></defs><title>有感哲學</title><g id="圖層_2" data-name="圖層 2"><g id="圖層_3" data-name="圖層 3"><path class="cls-1" d="M20.92,125.17H7.34a.31.31,0,0,1-.3-.36l4.73-26.62L2,98.09a.31.31,0,0,1-.3-.36L3.59,86.91a.31.31,0,0,1,.3-.25h34a.31.31,0,0,1,.3.36l-2,11.18a.31.31,0,0,1-.3.25h0l-10-.11-4.72,26.58A.31.31,0,0,1,20.92,125.17Zm-13.22-.61h13L25.39,98a.31.31,0,0,1,.3-.25h0l10,.11,1.87-10.56H4.15L2.35,97.48l9.79.1a.31.31,0,0,1,.3.36Z"/><path class="cls-1" d="M46.82,125.17H33.25a.31.31,0,0,1-.3-.36l6.52-37a.31.31,0,0,1,.24-.25A67.86,67.86,0,0,1,53.49,86C65.64,86,71.8,89.85,71.8,97.45h0A14.47,14.47,0,0,1,63.35,111a52.79,52.79,0,0,0,6.22,13.65.31.31,0,0,1,0,.22l0,.1a.31.31,0,0,1-.3.25h0l-15.06-.06A.31.31,0,0,1,54,125a37.44,37.44,0,0,1-4.54-11.72h-.24l-2.06,11.67A.31.31,0,0,1,46.82,125.17Zm-13.2-.61H46.57l2.06-11.67a.31.31,0,0,1,.3-.25h.75a.31.31,0,0,1,.3.25,36.76,36.76,0,0,0,4.43,11.62l14.42.05a53,53,0,0,1-6.14-13.68.31.31,0,0,1,.16-.36,13.92,13.92,0,0,0,8.34-13.06h0c0-7.19-6-10.84-17.7-10.84A66.76,66.76,0,0,0,40,88.11Zm19.47-20H50.45a.31.31,0,0,1-.3-.36l1.63-9.28a.31.31,0,0,1,.29-.25l1.1,0c3.09,0,4.86,1.53,4.86,4.21h0C58,102.23,56,104.58,53.09,104.58ZM50.82,104h2.28c2.58,0,4.32-2,4.32-5.1,0-2.32-1.51-3.6-4.25-3.6l-.82,0Z"/><path class="cls-1" d="M90.35,125.11H76.78a.31.31,0,0,1-.3-.36L78.38,114,70.73,87.93a.31.31,0,0,1,.27-.39l15.14-1.28a.3.3,0,0,1,.33.27l1.11,10c.19,1.5.38,3.65.51,5.89C89,100,90,97.88,90.61,96.47L95,86.84a.31.31,0,0,1,.28-.18h15a.31.31,0,0,1,.26.47L92.42,114.91l-1.77,9.95A.31.31,0,0,1,90.35,125.11Zm-13.21-.61h13l1.73-9.76a.31.31,0,0,1,0-.11l17.79-27.35H95.46l-4.29,9.46c-.75,1.6-1.84,4.19-2.92,6.93a.31.31,0,0,1-.29.19h-.11a.31.31,0,0,1-.31-.29c-.14-2.63-.36-5.24-.58-7l-1.08-9.69L71.42,88.12,79,113.92a.31.31,0,0,1,0,.14Z"/><path class="cls-1" d="M135.68,125.17H122.1a.31.31,0,0,1-.3-.36l4.73-26.62-9.79-.1a.31.31,0,0,1-.3-.36l1.91-10.82a.31.31,0,0,1,.3-.25h34a.31.31,0,0,1,.3.36L151,98.2a.31.31,0,0,1-.3.25h0l-10-.11L136,124.92A.31.31,0,0,1,135.68,125.17Zm-13.22-.61h13L140.14,98a.31.31,0,0,1,.3-.25h0l10,.11,1.87-10.56H118.91l-1.8,10.21,9.79.1a.31.31,0,0,1,.3.36Z"/><path class="cls-1" d="M161.58,125.17H148a.31.31,0,0,1-.3-.36l6.52-37a.31.31,0,0,1,.24-.25A67.86,67.86,0,0,1,168.24,86c12.16,0,18.32,3.85,18.32,11.45h0a14.47,14.47,0,0,1-8.45,13.5,52.79,52.79,0,0,0,6.22,13.65.31.31,0,0,1,0,.22l0,.1a.31.31,0,0,1-.3.25h0L169,125.11a.31.31,0,0,1-.26-.15,37.44,37.44,0,0,1-4.54-11.72h-.24l-2.06,11.67A.31.31,0,0,1,161.58,125.17Zm-13.2-.61h12.95l2.06-11.67a.31.31,0,0,1,.3-.25h.75a.31.31,0,0,1,.3.25,36.76,36.76,0,0,0,4.43,11.62l14.42.05a53,53,0,0,1-6.14-13.68.31.31,0,0,1,.16-.36,13.92,13.92,0,0,0,8.34-13.06h0c0-7.19-6-10.84-17.7-10.84a66.76,66.76,0,0,0-13.45,1.5Zm19.47-20h-2.64a.31.31,0,0,1-.3-.36l1.63-9.28a.31.31,0,0,1,.29-.25l1.1,0c3.09,0,4.86,1.53,4.86,4.21h0C172.78,102.23,170.76,104.58,167.85,104.58Zm-2.28-.61h2.28c2.58,0,4.32-2,4.32-5.1,0-2.32-1.51-3.6-4.25-3.6l-.82,0Z"/><path class="cls-1" d="M205.11,125.11H191.53a.31.31,0,0,1-.3-.36L193.14,114l-7.65-26.09a.31.31,0,0,1,.27-.39l15.14-1.28a.3.3,0,0,1,.33.27l1.11,10c.19,1.5.38,3.65.51,5.89.95-2.36,1.87-4.52,2.52-5.93l4.37-9.64a.31.31,0,0,1,.28-.18h15a.31.31,0,0,1,.26.47l-18.07,27.78-1.77,9.95A.31.31,0,0,1,205.11,125.11Zm-13.21-.61h13l1.73-9.76a.31.31,0,0,1,0-.11l17.79-27.35H210.21l-4.29,9.46c-.75,1.6-1.84,4.19-2.92,6.93a.31.31,0,0,1-.29.19h-.11a.31.31,0,0,1-.31-.29c-.14-2.63-.36-5.24-.58-7l-1.08-9.69-14.47,1.22,7.57,25.8a.31.31,0,0,1,0,.14Z"/><path class="cls-1" d="M242.66,125.94c-5.85,0-11.18-1.44-14.6-3.94a.31.31,0,0,1-.1-.37l4.16-9.64a.31.31,0,0,1,.28-.19h.15a.31.31,0,0,1,.19.06c2.7,2.05,7.43,3.16,10.51,3.16h0c1.77,0,2.82-.44,2.82-1.16,0-1.06-1.61-1.85-3.64-2.85-3.87-1.9-9.17-4.51-9.17-11.61,0-6.51,4.73-13.46,18-13.46a29,29,0,0,1,13.46,3.19.31.31,0,0,1,.15.4l-4.37,9.7a.31.31,0,0,1-.44.13l-.09-.05c-2.3-1.7-6.3-2.47-9.05-2.47-3.05,0-3.05,1-3.05,1.5,0,1.27,1.76,2.07,4,3.09,3.87,1.77,9.18,4.19,9.18,11.16C261,120.71,253.83,125.94,242.66,125.94Zm-14-4.29c3.33,2.34,8.43,3.68,14,3.68,10.79,0,17.76-5,17.76-12.72,0-6.58-4.89-8.81-8.82-10.6-2.43-1.11-4.35-2-4.35-3.65,0-1.44,1.17-2.11,3.67-2.11,2.76,0,6.75.76,9.17,2.41l4.09-9.09a28.24,28.24,0,0,0-12.92-3c-5.7,0-10.32,1.35-13.33,3.92a11.35,11.35,0,0,0-4,8.93c0,6.72,5.1,9.23,8.82,11.06,2.22,1.09,4,2,4,3.4,0,.53-.34,1.77-3.46,1.77h0c-3.1,0-7.82-1.1-10.65-3.13Z"/><path class="cls-1" d="M290.4,125.17H262.12a.31.31,0,0,1-.3-.36l6.67-37.9a.31.31,0,0,1,.3-.25h27.8a.31.31,0,0,1,.3.36L295.13,97a.31.31,0,0,1-.31.25l-13.89-.36-.74,4.21,11.67-.26a.31.31,0,0,1,.31.36l-1.69,9.59a.31.31,0,0,1-.31.25l-11.69-.26-.75,4.24,14.4-.37a.32.32,0,0,1,.24.11.31.31,0,0,1,.07.25l-1.75,9.95A.31.31,0,0,1,290.4,125.17Zm-27.92-.61h27.66l1.64-9.32-14.4.37a.3.3,0,0,1-.24-.11.31.31,0,0,1-.07-.25l.86-4.87a.31.31,0,0,1,.31-.25l11.69.26,1.58-9-11.67.26a.31.31,0,0,1-.24-.11.31.31,0,0,1-.07-.25l.85-4.84a.31.31,0,0,1,.31-.25l13.89.36,1.64-9.32H269Z"/><path class="cls-1" d="M322.37,125.17H294.09a.31.31,0,0,1-.3-.36l6.67-37.9a.31.31,0,0,1,.3-.25h27.8a.31.31,0,0,1,.3.36L327.1,97a.31.31,0,0,1-.31.25l-13.89-.36-.74,4.21,11.67-.26a.31.31,0,0,1,.31.36l-1.69,9.59a.31.31,0,0,1-.31.25l-11.69-.26-.75,4.24,14.4-.37a.32.32,0,0,1,.24.11.31.31,0,0,1,.07.25l-1.75,9.95A.31.31,0,0,1,322.37,125.17Zm-27.92-.61h27.66l1.64-9.32-14.4.37a.3.3,0,0,1-.24-.11.31.31,0,0,1-.07-.25l.86-4.87a.31.31,0,0,1,.31-.25l11.69.26,1.58-9-11.67.26a.32.32,0,0,1-.24-.11.31.31,0,0,1-.07-.25l.85-4.84a.31.31,0,0,1,.31-.25l13.89.36,1.64-9.32H301Z"/><path class="cls-1" d="M13.8,69.68a.31.31,0,0,1-.31-.31V44.85c-1.95,1.79-4,3.56-6.1,5.26A.31.31,0,0,1,6.91,50,41.44,41.44,0,0,0,.07,37.45.31.31,0,0,1,.14,37,64.33,64.33,0,0,0,16.7,20.73c.52-.68,1-1.37,1.46-2.08H2.29A.31.31,0,0,1,2,18.31c.19-2,.29-4,.29-6s-.1-4-.29-6A.31.31,0,0,1,2.29,6H24.43c.7-1.87,1.33-3.82,1.9-5.79A.31.31,0,0,1,26.7,0,71.5,71.5,0,0,0,40.78,1.69c1.27.12,1.91.52,1.91,1.19s-.67,1.55-2,2.47L40.41,6H69.08a.31.31,0,0,1,.31.34c-.19,2-.29,4-.29,6s.1,4,.29,6a.31.31,0,0,1-.31.34H34.72c-.32.56-.64,1.12-1,1.66h29a.31.31,0,0,1,.31.34,46.93,46.93,0,0,0-.29,5.17v33.5c0,4-2.76,6.86-8.22,8.36h0c-4,.54-6.42.83-7.05.88a50.35,50.35,0,0,0-5,.8.31.31,0,0,1-.37-.26,41.42,41.42,0,0,0-3.42-12.23.31.31,0,0,1,.31-.44c2,.19,3.62.29,4.88.29,4.87,0,5.12-.72,5.12-.87V54.72h-22V69.37a.31.31,0,0,1-.1.23.3.3,0,0,1-.23.08c-2.18-.19-4.36-.29-6.5-.29s-4.2.1-6.28.29Zm6.31-.91c2,0,4.13.09,6.22.27V54.41a.31.31,0,0,1,.31-.31H49.28a.31.31,0,0,1,.31.31v1.47c0,1-1.77,1.48-5.73,1.48-1.16,0-2.65-.08-4.41-.24a42.19,42.19,0,0,1,3.21,11.59c1.77-.36,3.38-.61,4.77-.75.63,0,3-.34,7-.88,5.21-1.44,7.75-4,7.75-7.76V25.82a47.45,47.45,0,0,1,.26-4.9H33.22a.31.31,0,0,1-.26-.46c.44-.73.88-1.5,1.32-2.27a.31.31,0,0,1,.27-.16H68.74c-.17-1.89-.26-3.81-.26-5.7s.09-3.81.26-5.7H40a.31.31,0,0,1-.29-.41L40.12,5a.31.31,0,0,1,.12-.15c1.52-1,1.84-1.66,1.84-2s-.84-.53-1.33-.57A72.48,72.48,0,0,1,26.84.67c-.57,2-1.21,3.89-1.91,5.76a.31.31,0,0,1-.29.2h-22c.17,1.9.26,3.82.26,5.7s-.09,3.8-.26,5.7H18.71a.31.31,0,0,1,.26.47,30.53,30.53,0,0,1-1.78,2.59A65.06,65.06,0,0,1,.75,37.33a42,42,0,0,1,6.59,12c2.16-1.76,4.26-3.58,6.24-5.43a.31.31,0,0,1,.52.22V69C16.09,68.86,18.11,68.77,20.1,68.77Zm29.18-24H26.63a.31.31,0,0,1-.31-.31V42.39a.31.31,0,0,1,.31-.31H49.28a.31.31,0,0,1,.31.31v2.05A.31.31,0,0,1,49.28,44.75Zm-22.35-.61H49V42.7h-22Zm22.35-10.9H26.63a.31.31,0,0,1-.31-.31V31a.31.31,0,0,1,.31-.31H49.28a.31.31,0,0,1,.31.31v2A.31.31,0,0,1,49.28,33.24Zm-22.35-.61H49V31.26h-22Z"/><path class="cls-1" d="M127.69,69.9a.31.31,0,0,1-.27-.15,41.83,41.83,0,0,0-6.61-8.66v8a.31.31,0,0,1-.34.31,64.78,64.78,0,0,0-12.26,0,.31.31,0,0,1-.34-.31v-6.9c-5.69.94-11.31,1.81-16.71,2.57-1.13,1.05-1.61,1.19-1.9,1.19-.46,0-1-.25-1.18-1.44a.29.29,0,0,1,0,0V58.15a49.92,49.92,0,0,0-.51-6.85.31.31,0,0,1,.3-.35h2.85V27.81H87.29a.31.31,0,0,1-.31-.34A55.62,55.62,0,0,0,87,16.1a.31.31,0,0,1,.31-.34H98.72V14.62H90.45a.31.31,0,0,1-.31-.34c.19-2,.29-4,.29-6s-.1-4-.29-6A.31.31,0,0,1,90.45,2h31.74a.31.31,0,0,1,.31.33c-.15,2-.22,4-.22,6s.07,4,.22,6a.31.31,0,0,1-.31.33h-9.37v1.15h12.3a.31.31,0,0,1,.31.34c-.12,1.2-.21,2.42-.25,3.63a77.26,77.26,0,0,0,2.21-18.55.31.31,0,0,1,.38-.3A121.17,121.17,0,0,0,142,3.37c1.43.14,1.74.76,1.74,1.26s-.57,1.22-1.78,2.15c-.18,1.3-.37,2.59-.58,3.85h14.37a.31.31,0,0,1,.31.34c-.19,2-.29,4.12-.29,6.2s.1,4.39.29,6.57a.31.31,0,0,1-.31.33h-2.93C152.43,35,150.61,44,147.42,50.89a31.52,31.52,0,0,0,9,5.58.31.31,0,0,1,.1.5,32.73,32.73,0,0,0-7.92,12.49.31.31,0,0,1-.43.18,32.93,32.93,0,0,1-9.64-7.39,59.07,59.07,0,0,1-10.68,7.61A.31.31,0,0,1,127.69,69.9ZM120.51,60a.31.31,0,0,1,.21.09,42.24,42.24,0,0,1,7.08,9,57.93,57.93,0,0,0,10.53-7.58.31.31,0,0,1,.43,0,32.81,32.81,0,0,0,9.35,7.33,33.3,33.3,0,0,1,7.64-12.07,31.5,31.5,0,0,1-8.92-5.67.31.31,0,0,1-.07-.35c3.24-6.92,5.08-16,5.47-27.08a.31.31,0,0,1,.31-.3h2.89c-.18-2.09-.27-4.2-.27-6.29s.09-4,.26-5.92H141a.31.31,0,0,1-.3-.36c.24-1.4.46-2.86.66-4.31a.31.31,0,0,1,.12-.2c1.52-1.14,1.64-1.62,1.64-1.73,0-.35-.4-.57-1.19-.65a123.06,123.06,0,0,1-14-2.41,77,77,0,0,1-2.87,20.74.31.31,0,0,1-.6-.08v-.44c0-1.8.09-3.62.26-5.41H112.51a.31.31,0,0,1-.31-.31V14.31a.31.31,0,0,1,.31-.31h9.35c-.13-1.89-.2-3.81-.2-5.7s.07-3.81.2-5.7H90.78C91,4.5,91,6.41,91,8.3S91,12.1,90.78,14H99a.31.31,0,0,1,.31.31v1.76a.31.31,0,0,1-.31.31H87.63c.17,1.8.26,3.62.26,5.41s-.09,3.61-.26,5.41H91a.31.31,0,0,1,.31.31V51.26a.31.31,0,0,1-.31.31h-2.8a50,50,0,0,1,.47,6.58v6.29c.11.89.46.89.57.89s.47-.08,1.55-1.09a.31.31,0,0,1,.17-.08c5.54-.78,11.31-1.67,17.15-2.64a.3.3,0,0,1,.25.07.31.31,0,0,1,.11.23v6.92c1.89-.17,3.81-.26,5.7-.26h0c2,0,4,.09,6,.26V60.35a.31.31,0,0,1,.19-.28Zm0-3.71a.31.31,0,0,1-.31-.31V39.09a.31.31,0,0,1,.55-.19,54.43,54.43,0,0,1,4.43,7c.59-.68,1.2-1.4,1.83-2.15a.31.31,0,0,1,.52.08,65.62,65.62,0,0,0,3.14,6.42.31.31,0,0,1-.07.38,36.06,36.06,0,0,1-10,5.7ZM120.81,40V55.57a35.33,35.33,0,0,0,9.2-5.26c-1-1.81-2-3.75-2.85-5.8-.62.74-1.23,1.45-1.81,2.11a.31.31,0,0,1-.5-.06A56.88,56.88,0,0,0,120.81,40ZM103.35,50.39a.31.31,0,0,1-.31-.31v-2.2a.31.31,0,0,1,.31-.31h4.84a.31.31,0,0,1,.31.31v1.54a.31.31,0,0,1-.26.3l-4.84.66Zm.31-2.2v1.54l4.22-.58v-1Zm4.53-8.65h-4.84a.31.31,0,0,1-.31-.31V37.55a.31.31,0,0,1,.31-.31h4.84a.31.31,0,0,1,.31.31v1.69A.31.31,0,0,1,108.19,39.54Zm-4.53-.61h4.22V37.86h-4.22Zm34.52-2.54a.31.31,0,0,1-.29-.2c-.78-2.15-1.5-4.48-2.13-6.92a.31.31,0,0,1,0-.17c.15-.45.33-.9.52-1.35.48-1.31.95-2.68,1.38-4.07a.31.31,0,0,1,.29-.22h1.1a.31.31,0,0,1,.31.28c.05.56.07,1,.07,1.49a65.12,65.12,0,0,1-1,10.91.31.31,0,0,1-.28.25Zm-1.81-7.19c.51,2,1.09,3.88,1.7,5.67a67.29,67.29,0,0,0,.75-9.64c0-.35,0-.73,0-1.16h-.59c-.42,1.33-.86,2.64-1.33,3.91C136.67,28.39,136.51,28.8,136.37,29.2Zm-15.86,4.11h-.08a.31.31,0,0,1-.23-.3v-5.5a.31.31,0,0,1,.31-.31H123a.31.31,0,0,1,.29.41,39.5,39.5,0,0,1-2.51,5.54A.31.31,0,0,1,120.51,33.31Zm.31-5.5v4a41.08,41.08,0,0,0,1.74-4Zm-12.62,1.76h-4.84a.31.31,0,0,1-.31-.31V27.51a.31.31,0,0,1,.31-.31h4.84a.31.31,0,0,1,.31.31v1.76A.31.31,0,0,1,108.19,29.57ZM103.66,29h4.22V27.81h-4.22Z"/><path class="cls-1" d="M224.69,69.09h0a71.09,71.09,0,0,0-12.85,0,.31.31,0,0,1-.34-.31V61.32h-13.4a.31.31,0,0,1-.3-.34,40.23,40.23,0,0,0,.29-4.8,42.08,42.08,0,0,0-.29-4.88.31.31,0,0,1,.3-.34h13.4V49.59h-16a.31.31,0,0,1-.3-.34,33.13,33.13,0,0,0,.22-3.4l-2.76.54V57.86A12,12,0,0,1,191,64.48c-1.3,1.66-5.53,3.07-13,4.31a.31.31,0,0,1-.35-.26A50,50,0,0,0,174,55.13a.31.31,0,0,1,.31-.43,39.09,39.09,0,0,0,3.92.29c1.45,0,1.45-.63,1.45-.87v-5l-4,.81a.31.31,0,0,1-.37-.28,43.4,43.4,0,0,0-.58-4.88l-.66-4.18a32.36,32.36,0,0,0-1.31-5.15.31.31,0,0,1,.25-.4l6.63-1V26.13H174a.31.31,0,0,1-.31-.34c.19-2.09.29-4.2.29-6.28s-.1-4.19-.29-6.28a.31.31,0,0,1,.31-.34h5.7V6.32a31.13,31.13,0,0,0-.58-5.37.31.31,0,0,1,.36-.36,74.59,74.59,0,0,0,12.55.73c1.13,0,1.7.33,1.7,1,0,.48-.35,1-1.1,1.61v9h3.95a.31.31,0,0,1,.23.1l.05.08V6.32a24.5,24.5,0,0,0-.29-3.69.31.31,0,0,1,.3-.35h43.55a.31.31,0,0,1,.3.35,24.33,24.33,0,0,0-.29,3.69v10a24.31,24.31,0,0,0,.29,3.69.31.31,0,0,1-.3.35H225v1.07h13.48a.31.31,0,0,1,.31.31V29a.31.31,0,0,1-.31.31H225v1.07h16.92a.31.31,0,0,1,.3.35,23.68,23.68,0,0,0,0,7.38.31.31,0,0,1-.3.35h-6.39l-.7,1.66h6.5a.31.31,0,0,1,.3.35,31.44,31.44,0,0,0-.29,4.28,35.27,35.27,0,0,0,.29,4.51.31.31,0,0,1-.3.35H225V51h14.06a.31.31,0,0,1,.3.34,41.83,41.83,0,0,0-.29,4.88,40,40,0,0,0,.29,4.8.31.31,0,0,1-.3.34H225v7.46a.31.31,0,0,1-.31.31Zm-6.6-.91c2.09,0,4.21.09,6.29.27V61a.31.31,0,0,1,.31-.31h14a40.61,40.61,0,0,1-.26-4.53,42.29,42.29,0,0,1,.26-4.61h-14a.31.31,0,0,1-.31-.31v-2a.31.31,0,0,1,.31-.31H241a35.89,35.89,0,0,1-.25-4.24,32.17,32.17,0,0,1,.25-4h-6.61a.31.31,0,0,1-.28-.43L235,38a.31.31,0,0,1,.28-.19h6.24a24.18,24.18,0,0,1,0-6.86H224.69a.31.31,0,0,1-.31-.31V29a.31.31,0,0,1,.31-.31h13.48V22.1H224.69a.31.31,0,0,1-.31-.31V20.1a.31.31,0,0,1,.31-.31H240.1a24.79,24.79,0,0,1-.24-3.43v-10a24.79,24.79,0,0,1,.24-3.43H197.26a24.92,24.92,0,0,1,.25,3.43v10a24.9,24.9,0,0,1-.24,3.43h14.53a.31.31,0,0,1,.31.31v1.69a.31.31,0,0,1-.31.31H199v6.57h12.82a.31.31,0,0,1,.31.31v1.69a.31.31,0,0,1-.31.31H195.87a24.16,24.16,0,0,1,0,6.86h6.9a.31.31,0,0,1,.28.19l1,2.27a.31.31,0,0,1-.28.43h-7.87c0,.24,0,.48,0,.72a.31.31,0,0,1-.61.06q-.08-.37-.15-.82l-.59-4.11a19.59,19.59,0,0,1-.51-4.09l-1.63.24a.31.31,0,0,1-.35-.3v-6.6a.31.31,0,0,1,.31-.31h3.92c-.18-2-.26-4-.26-6s.09-4,.26-6h-3.92a.31.31,0,0,1-.31-.31V3.75a.31.31,0,0,1,.12-.24c.86-.69,1-1.06,1-1.23,0-.32-.76-.35-1.09-.35a80.74,80.74,0,0,1-12.23-.66,30.51,30.51,0,0,1,.51,5v6.89a.31.31,0,0,1-.31.31h-5.68c.18,2,.26,4,.26,6s-.09,4-.26,6H180a.31.31,0,0,1,.31.31v8.43a.31.31,0,0,1-.26.3l-6.53,1a32.93,32.93,0,0,1,1.21,4.91l.66,4.18A44.17,44.17,0,0,1,176,49.2l4-.81a.31.31,0,0,1,.37.3v5.43c0,.68-.36,1.48-2.07,1.48-.8,0-2-.08-3.46-.24a51.05,51.05,0,0,1,3.43,12.77c7-1.19,11.1-2.54,12.26-4a11.46,11.46,0,0,0,1.55-6.26V46.13a.31.31,0,0,1,.25-.3l3.37-.66a.31.31,0,0,1,.37.3,33.63,33.63,0,0,1-.18,3.51h15.93a.31.31,0,0,1,.31.31v2a.31.31,0,0,1-.31.31H198.42a42.52,42.52,0,0,1,.26,4.61,40.79,40.79,0,0,1-.26,4.53h13.36a.31.31,0,0,1,.31.31v7.44C214.08,68.27,216.1,68.18,218.09,68.18ZM195.67,40.1h7.59l-.7-1.66h-7.13Zm-1.33-8.28a.31.31,0,0,1,.31.31,19.07,19.07,0,0,0,.51,4.33l.15,1a24.11,24.11,0,0,0,.2-3.07,24.49,24.49,0,0,0-.29-3.69.31.31,0,0,1,.3-.35h16V29.28H198.67a.31.31,0,0,1-.31-.31V21.79a.31.31,0,0,1,.31-.31h12.82V20.41H196.91a.31.31,0,0,1-.23-.11l0-.06c0,1.85.12,3.72.29,5.56a.31.31,0,0,1-.31.34h-3.95v5.94l1.63-.24Zm2.55-18.29c-.18,2-.27,4-.27,6q0,.19,0,.37a24.38,24.38,0,0,0,.26-3.53Zm25.75,27.19h-6.89a.31.31,0,0,1-.28-.19l-1-2.27a.31.31,0,0,1,.28-.43h8.72a.31.31,0,0,1,.29.42l-.88,2.27A.31.31,0,0,1,222.64,40.72ZM216,40.1h6.48l.64-1.66h-7.81Zm15.63-27.17h-3.74a.31.31,0,0,1-.31-.31V10.06a.31.31,0,0,1,.31-.31h3.74a.31.31,0,0,1,.31.31v2.57A.31.31,0,0,1,231.58,12.93Zm-3.43-.61h3.13v-2h-3.13Zm-7.71.61H216.7a.31.31,0,0,1-.31-.31V10.06a.31.31,0,0,1,.31-.31h3.74a.31.31,0,0,1,.31.31v2.57A.31.31,0,0,1,220.44,12.93ZM217,12.32h3.13v-2H217Zm-7.79.61h-3.45a.31.31,0,0,1-.31-.31V10.06a.31.31,0,0,1,.31-.31h3.45a.31.31,0,0,1,.31.31v2.57A.31.31,0,0,1,209.22,12.93Zm-3.14-.61h2.83v-2h-2.83Z"/><path class="cls-1" d="M281.47,69.9a.31.31,0,0,1-.3-.24,31.39,31.39,0,0,0-3.7-9.07.31.31,0,0,1,.29-.46c2.86.19,5.74.29,8.56.29,1.06,0,1.67-.18,1.67-.5V58.75H261.67a.31.31,0,0,1-.3-.35,31.58,31.58,0,0,0,.29-4.28,31.07,31.07,0,0,0-.29-4.21.31.31,0,0,1,.3-.35h26.06a12.51,12.51,0,0,0-.26-1.6.31.31,0,0,1,.36-.37,56.92,56.92,0,0,0,9.45.8c.58-.42,1.16-.87,1.72-1.36H274.58a.31.31,0,0,1-.3-.35,30.33,30.33,0,0,0,.29-3.7,29,29,0,0,0-.29-3.7.31.31,0,0,1,.3-.35h39.52a.31.31,0,0,1,.3.35,24.34,24.34,0,0,0-.29,3.69v3.45a.31.31,0,0,1-.1.23c-1.09,1-2.17,2-3.21,2.91h15.61a.31.31,0,0,1,.3.35,30.88,30.88,0,0,0-.29,4.21,31.39,31.39,0,0,0,.29,4.28.31.31,0,0,1-.3.35H302.08V61.3a6.05,6.05,0,0,1-1.69,4A11.12,11.12,0,0,1,292.86,69l-11.37.88Zm-3.19-9.13a31.79,31.79,0,0,1,3.43,8.49l11.1-.86a10.52,10.52,0,0,0,7.12-3.49,5.47,5.47,0,0,0,1.54-3.61V58.45a.31.31,0,0,1,.31-.31h24.28a32.14,32.14,0,0,1-.25-4,31.49,31.49,0,0,1,.25-3.95H310a.31.31,0,0,1-.2-.54c1.19-1,2.44-2.18,3.71-3.35V43a24.81,24.81,0,0,1,.24-3.43H274.92a28.36,28.36,0,0,1,.25,3.43,29.44,29.44,0,0,1-.25,3.43H299.8a.31.31,0,0,1,.21.53,23,23,0,0,1-2.45,2,.32.32,0,0,1-.18.06,62.36,62.36,0,0,1-9.2-.72,13.58,13.58,0,0,1,.2,1.57.31.31,0,0,1-.31.33H262a31.61,31.61,0,0,1,.25,3.95,32.26,32.26,0,0,1-.25,4h26.26a.31.31,0,0,1,.31.31v1.47c0,1.11-1.72,1.11-2.29,1.11C283.66,61,281,60.94,278.28,60.77ZM327.87,45h0c-2-.19-4-.29-6-.29s-3.82.1-5.76.29a.3.3,0,0,1-.24-.08.31.31,0,0,1-.1-.23V38.15H273.12v6.58a.31.31,0,0,1-.34.31c-2-.19-4-.29-6-.29a56.17,56.17,0,0,0-5.69.29.31.31,0,0,1-.34-.31V33.81a10.29,10.29,0,0,0-.57-3.63.31.31,0,0,1,.29-.42h2.33V9.18c0-1.83-.1-3.74-.29-5.69a.31.31,0,0,1,.31-.34A86.51,86.51,0,0,0,281.11,1.4a.31.31,0,0,1,.35.18,24.42,24.42,0,0,0,1.32,2.74,34.33,34.33,0,0,0,6.18-4,.31.31,0,0,1,.35,0c1.64.94,3.28,2,4.87,3,1.09-1.06,2.14-2.15,3.1-3.25a.31.31,0,0,1,.42,0A42.68,42.68,0,0,0,303,3.57q-.05-.61-.1-1.26a.31.31,0,0,1,.31-.33h22.29a.31.31,0,0,1,.31.34,37.76,37.76,0,0,0-.22,4V29.77h2.55a.31.31,0,0,1,.3.35,24.34,24.34,0,0,0-.29,3.69V44.74a.31.31,0,0,1-.31.31Zm-61.07-.91c1.89,0,3.8.09,5.7.26V37.84a.31.31,0,0,1,.31-.31h43.26a.31.31,0,0,1,.31.31V44.4c1.85-.17,3.69-.26,5.48-.26s3.8.09,5.7.26V33.81a24.79,24.79,0,0,1,.24-3.43h-2.5a.31.31,0,0,1-.31-.31V6.32c0-1.21.06-2.47.19-3.73H303.57q.06.78.12,1.5a.31.31,0,0,1-.45.3A44,44,0,0,1,297.56.73c-1,1.1-2,2.19-3.13,3.25a.31.31,0,0,1-.38,0c-1.58-1.07-3.22-2.09-4.85-3a34.83,34.83,0,0,1-5.76,3.7c1.75,1.27,3.4,2.56,4.9,3.83a.31.31,0,0,1,0,.49c-1.75,1.22-3.66,2.43-5.67,3.61a.31.31,0,0,1-.16,0H274a.31.31,0,0,1-.31-.31V11.16a.31.31,0,0,1,.28-.31,99.8,99.8,0,0,0,10-1.39.31.31,0,0,1,.14,0l1.06.28c.19,0,.24-.07.24-.28a1.66,1.66,0,0,0-.45-.91,25.73,25.73,0,0,1-4-6.51,87.13,87.13,0,0,1-17.8,1.71c.17,1.85.26,3.67.26,5.41V30.07a.31.31,0,0,1-.31.31h-2.21a11.5,11.5,0,0,1,.46,3.43V44.4C263.2,44.22,265,44.14,266.8,44.14ZM274.3,12h8.11q1.4-.82,2.72-1.66h-.08l-1-.27c-2.89.57-6.16,1-9.73,1.36Zm9.15-6.59a25.87,25.87,0,0,0,2,2.74,2.24,2.24,0,0,1,.58,1.3,1.11,1.11,0,0,1-.05.35q.85-.55,1.66-1.11C286.33,7.63,284.93,6.53,283.45,5.44Zm30.94,24.94H302.51a.31.31,0,0,1-.15-.57c1.18-.69,2.39-1.35,3.61-2a.31.31,0,0,1,.14,0h8.28a.31.31,0,0,1,.31.31v2A.31.31,0,0,1,314.38,30.38Zm-10.73-.61h10.42V28.4h-7.9C305.33,28.84,304.49,29.3,303.66,29.77Zm-6.94.61h-6.89a.31.31,0,0,1-.18-.56c1.16-.82,2.37-1.66,3.6-2.5a.31.31,0,0,1,.35,0c1.18.83,2.29,1.68,3.31,2.5a.31.31,0,0,1-.19.55Zm-5.92-.61h5c-.77-.6-1.58-1.21-2.42-1.81Zm-6.17.61H274a.31.31,0,0,1-.31-.31V28.39a.31.31,0,0,1,.31-.31h8.5a.31.31,0,0,1,.19.07l2.13,1.69a.31.31,0,0,1-.19.55Zm-10.32-.61h9.45l-1.36-1.07H274.3Zm8.27-3.56a.31.31,0,0,1-.31-.31V21.51H274a.31.31,0,0,1-.31-.31V19.52a.31.31,0,0,1,.31-.31h7.4a.31.31,0,0,1,.17.56l-.05,0c2,1.08,3.82,2.15,5.54,3.19a.31.31,0,0,1,0,.52c-1.36.88-2.82,1.77-4.34,2.65A.31.31,0,0,1,282.57,26.2Zm.31-4.94v4.09c1.19-.7,2.34-1.4,3.44-2.1C285.21,22.61,284.07,21.94,282.87,21.27Zm-8.58-.37h7.92l-1.48-.82a.31.31,0,0,1-.16-.26H274.3ZM304,26a.31.31,0,0,1-.19-.07c-1.26-1-2.56-2-3.87-2.92a.31.31,0,0,1,0-.5c1.11-.77,2.25-1.59,3.37-2.41a.31.31,0,0,1,.13-.06c.48-.09.55-.21.55-.21,0-.2-.34-.37-.54-.45q-1.73-.9-3.27-1.86a.31.31,0,0,1,0-.51,41.23,41.23,0,0,1,4-2.44.31.31,0,0,1,.45.27v4.09h9.74a.31.31,0,0,1,.31.31v1.69a.31.31,0,0,1-.31.31h-10v4.46A.31.31,0,0,1,304,26Zm-3.35-3.24c1,.73,2,1.5,3,2.29V20.91a.31.31,0,0,1,.31-.31h10V19.53H304.6a.82.82,0,0,1,0,.28c0,.4-.33.67-1,.8C302.68,21.34,301.68,22.05,300.7,22.74Zm.25-5.51c.9.54,1.84,1.07,2.8,1.57l.28.13v-3.6C303,15.92,301.94,16.56,300.95,17.23Zm-18.09,1.71a.31.31,0,0,1-.31-.31V13.94a.31.31,0,0,1,.49-.24c1.08.83,2.17,1.73,3.24,2.65a.31.31,0,0,1,0,.48A38.53,38.53,0,0,1,283,18.9.31.31,0,0,1,282.86,18.94Zm.31-4.37V18.1c.92-.54,1.73-1.06,2.42-1.54C284.78,15.87,284,15.21,283.17,14.57Zm10.18,4.15a.31.31,0,0,1-.15,0c-1.18-.64-2.36-1.26-3.51-1.83a.31.31,0,0,1,0-.53l3.88-2.71a.31.31,0,0,1,.39,0,30.38,30.38,0,0,1,2.07,2.3.31.31,0,0,1,0,.41c-.78.78-1.6,1.55-2.43,2.29A.31.31,0,0,1,293.34,18.72Zm-2.92-2.18c.94.48,1.91,1,2.88,1.5.7-.62,1.39-1.27,2-1.92-.53-.63-1.09-1.26-1.67-1.85Zm13.92-3.68a.31.31,0,0,1-.22-.09c-1.22-1.26-2.47-2.49-3.73-3.65a.31.31,0,0,1,0-.47c.92-.73,1.91-1.47,2.94-2.21a.31.31,0,0,1,.49.26c0,1.11-.13,2.24-.26,3.35h10.8a.31.31,0,0,1,.31.31V12a.31.31,0,0,1-.31.31h-9.74v.21a.31.31,0,0,1-.19.28Zm-3.27-4c1,.95,2,1.94,3,3a.31.31,0,0,1,.25-.12h9.74V10.66H303.24a.31.31,0,0,1-.3-.34c.12-1,.21-2,.26-3C302.46,7.84,301.75,8.38,301.07,8.9Z"/></g></g></svg>