<svg xmlns="http://www.w3.org/2000/svg" viewBox="0 0 445 445"><defs><style>.cls-1{fill:#fff36e;}.cls-2{fill:#c39bde;}.cls-3{fill:#00addc;}.cls-4{fill:#ff7bd4;}.cls-5{fill:#8ae872;}.cls-6{font-size:21.68px;}.cls-6,.cls-7,.cls-8{fill:#0047ba;font-family:NotoSansCJKtc-Bold-B5pc-H, Noto Sans CJK TC;font-weight:700;}.cls-7,.cls-8{font-size:13.56px;}.cls-8{writing-mode:tb;text-orientation:upright;glyph-orientation-vertical:0deg;}</style></defs><title>圓餅圖</title><g id="圖層_2" data-name="圖層 2"><g id="圖層_3" data-name="圖層 3"><path class="cls-1" d="M153.81,10.81l31.09,95.81a121.69,121.69,0,0,1,37.6-5.92V0A222.31,222.31,0,0,0,153.81,10.81Z"/><path class="cls-2" d="M344.3,222.5a121.8,121.8,0,1,1-239.69-30.71L7,166.95A222.91,222.91,0,0,0,0,222.5C0,345.38,99.62,445,222.5,445S445,345.38,445,222.5Z"/><path class="cls-3" d="M222.5,0V100.7a122.56,122.56,0,0,1,21,1.82L261,3.32A223.85,223.85,0,0,0,222.5,0Z"/><path class="cls-4" d="M261,3.32l-17.4,99.2a121.83,121.83,0,0,1,100.75,120H445C445,112.73,365.51,21.54,261,3.32Z"/><path class="cls-5" d="M184.9,106.62,153.81,10.81A223,223,0,0,0,7,166.95l97.62,24.84A122,122,0,0,1,184.9,106.62Z"/><text class="cls-6" transform="translate(339.49 112.74)">人事<tspan x="0" y="24.96">費用</tspan><tspan x="0" y="49.91">22%</tspan></text><text class="cls-6" transform="translate(124.49 386.99)">博覽會舉辦費用 54%</text><text class="cls-6" transform="translate(55.55 105.79)">實體空間<tspan x="0" y="24.96">運營 16%</tspan></text><text class="cls-7" transform="translate(186.21 36.1) rotate(-8.3)">課<tspan x="0" y="15.61">程</tspan><tspan x="0" y="31.22">運</tspan><tspan x="0" y="46.83">營</tspan></text><text class="cls-8" transform="translate(254.24 19.08)">網路平台與<tspan x="-17.51" y="0">社群經營</tspan></text></g></g></svg>